<?xml version="1.0" standalone="no"?>
<!DOCTYPE svg PUBLIC "-//W3C//DTD SVG 20010904//EN"
 "http://www.w3.org/TR/2001/REC-SVG-20010904/DTD/svg10.dtd">
<svg version="1.0" xmlns="http://www.w3.org/2000/svg"
 width="632.000000pt" height="632.000000pt" viewBox="0 0 632.000000 632.000000"
 preserveAspectRatio="xMidYMid meet">
<metadata>
Created by potrace 1.11, written by Peter Selinger 2001-2013
</metadata>
<g transform="translate(0.000000,632.000000) scale(0.100000,-0.100000)"
fill="#000000" stroke="none">
<path d="M2980 6314 c-19 -2 -80 -9 -135 -15 -480 -51 -836 -252 -1071 -604
-81 -123 -129 -219 -173 -352 -48 -143 -63 -245 -70 -504 l-6 -236 -352 -709
c-416 -841 -506 -1042 -569 -1283 -27 -106 -30 -170 -9 -210 23 -45 61 -55
168 -45 51 5 122 9 159 9 109 0 103 23 103 -373 1 -369 9 -459 64 -676 83
-324 210 -555 426 -771 171 -172 330 -275 569 -370 497 -198 1289 -233 1882
-85 357 89 613 228 839 455 216 216 343 447 426 771 55 217 63 307 64 676 0
396 -6 373 103 373 37 0 108 -4 159 -9 107 -10 145 0 168 45 21 40 18 104 -9
210 -63 241 -153 442 -569 1283 l-352 709 -6 236 c-7 259 -22 361 -70 504 -44
133 -92 229 -173 352 -230 346 -557 535 -1035 601 -103 14 -461 26 -531 18z
m-513 -1153 c79 -40 123 -115 123 -208 0 -74 -25 -129 -79 -174 -98 -85 -242
-74 -328 24 -42 47 -56 96 -51 173 6 94 60 165 154 200 50 18 129 12 181 -15z
m1600 0 c78 -39 123 -115 123 -206 0 -99 -44 -168 -135 -211 -87 -41 -175 -28
-250 38 -57 51 -79 107 -73 192 6 96 60 167 154 202 50 18 129 12 181 -15z
m-1742 -1057 c73 -18 269 -111 425 -201 202 -116 285 -160 347 -183 54 -19 66
-21 100 -10 54 18 165 74 343 175 199 113 378 200 456 219 125 32 209 13 249
-55 19 -32 20 -49 17 -278 -2 -167 0 -260 9 -295 7 -28 40 -126 75 -218 140
-372 257 -767 308 -1043 46 -251 51 -302 51 -560 -1 -284 -15 -381 -82 -550
-157 -398 -472 -614 -1023 -701 -167 -27 -713 -27 -880 0 -551 87 -866 303
-1023 701 -67 169 -81 266 -82 550 0 258 5 309 51 560 51 276 168 671 308
1043 35 92 68 190 75 218 9 35 11 128 9 295 -3 229 -2 246 17 278 41 69 123
87 250 55z"/>
</g>
</svg>
