<?xml version="1.0" encoding="UTF-8" standalone="no"?>
<svg
   xmlns:dc="http://purl.org/dc/elements/1.1/"
   xmlns:cc="http://creativecommons.org/ns#"
   xmlns:rdf="http://www.w3.org/1999/02/22-rdf-syntax-ns#"
   xmlns:svg="http://www.w3.org/2000/svg"
   xmlns="http://www.w3.org/2000/svg"
   xmlns:sodipodi="http://sodipodi.sourceforge.net/DTD/sodipodi-0.dtd"
   xmlns:inkscape="http://www.inkscape.org/namespaces/inkscape"
   version="1.1"
   id="svg2"
   viewBox="0 0 258.06415 364.63004"
   height="102.9067mm"
   width="72.831436mm"
   inkscape:version="0.91 r13725"
   sodipodi:docname="other-gnulinux-logo.svg">
  <sodipodi:namedview
     pagecolor="#ffffff"
     bordercolor="#666666"
     borderopacity="1"
     objecttolerance="10"
     gridtolerance="10"
     guidetolerance="10"
     inkscape:pageopacity="0"
     inkscape:pageshadow="2"
     inkscape:window-width="1600"
     inkscape:window-height="871"
     id="namedview14"
     showgrid="false"
     inkscape:zoom="1.4936709"
     inkscape:cx="50.821342"
     inkscape:cy="203.04073"
     inkscape:window-x="0"
     inkscape:window-y="1020"
     inkscape:window-maximized="1"
     inkscape:current-layer="layer1"
     fit-margin-top="0"
     fit-margin-left="0"
     fit-margin-right="0"
     fit-margin-bottom="0" />
  <defs
     id="defs4" />
  <metadata
     id="metadata7">
    <rdf:RDF>
      <cc:Work
         rdf:about="">
        <dc:format>image/svg+xml</dc:format>
        <dc:type
           rdf:resource="http://purl.org/dc/dcmitype/StillImage" />
        <dc:title />
      </cc:Work>
    </rdf:RDF>
  </metadata>
  <g
     transform="translate(547.84537,663.98354)"
     id="layer1">
    <circle
       r="0"
       cx="-453.55847"
       cy="-542.26514"
       id="path4143"
       style="color:#000000;clip-rule:nonzero;display:inline;overflow:visible;visibility:visible;opacity:1;isolation:auto;mix-blend-mode:normal;color-interpolation:sRGB;color-interpolation-filters:linearRGB;solid-color:#000000;solid-opacity:1;fill:#ffffff;fill-opacity:1;fill-rule:nonzero;stroke:none;stroke-width:0.375;stroke-linecap:butt;stroke-linejoin:miter;stroke-miterlimit:1;stroke-dasharray:none;stroke-dashoffset:0;stroke-opacity:1;color-rendering:auto;image-rendering:auto;shape-rendering:auto;text-rendering:auto;enable-background:accumulate" />
    <g
       transform="translate(-6.9308024,-10)"
       id="g4768">
      <g
         id="g4763" />
    </g>
    <path
       style="color:#000000;clip-rule:nonzero;display:inline;overflow:visible;visibility:visible;opacity:1;isolation:auto;mix-blend-mode:normal;color-interpolation:sRGB;color-interpolation-filters:linearRGB;solid-color:#000000;solid-opacity:1;fill:#000000;fill-opacity:1;fill-rule:nonzero;stroke:none;stroke-width:0.375;stroke-linecap:butt;stroke-linejoin:miter;stroke-miterlimit:1;stroke-dasharray:none;stroke-dashoffset:0;stroke-opacity:1;color-rendering:auto;image-rendering:auto;shape-rendering:auto;text-rendering:auto;enable-background:accumulate"
       d="M 195.24219 0 C 183.12677 0.060196971 172.3858 2.8213312 166.99023 4.171875 C 153.38933 7.576265 144.45072 12.136298 144.75977 13.267578 C 145.1301 14.623148 154.11184 14.088839 168.94336 12.568359 C 201.23526 9.2578894 226.86925 24.835956 216.75586 50.853516 C 211.96039 63.190226 193.89133 66.498016 183.13672 58.759766 C 165.81944 46.090506 140.25712 45.298313 129.03125 58.257812 C 117.80496 45.299292 92.244594 46.090816 74.927734 58.759766 C 64.173124 66.498016 46.104064 63.190226 41.308594 50.853516 C 31.195204 24.835956 56.829194 9.2578894 89.121094 12.568359 C 103.95261 14.088839 112.93436 14.623148 113.30469 13.267578 C 113.61374 12.136298 104.67512 7.576265 91.074219 4.171875 C 85.678649 2.821325 74.937606 0.062153125 62.822266 0.001953125 C 49.091546 -0.066246875 33.595491 3.33273 22.119141 16.1875 C 0.51615063 40.38522 3.81018 83.449583 49.6875 97.626953 C 50.070562 97.74533 50.44527 97.85011 50.824219 97.960938 C 45.81691 113.81152 48.158069 126.67925 47.650391 132.26367 C 46.936111 140.12082 -6.4565694 231.57502 0.65039062 244.63086 C 4.6219806 251.92686 22.293251 240.27372 22.650391 250.63086 C 23.007541 260.98801 5.3797438 364.63086 128.11328 364.63086 L 129.0293 364.63086 C 129.34801 364.63127 129.64892 364.62785 129.95117 364.63086 C 252.68471 364.63086 235.05496 260.98801 235.41211 250.63086 C 235.76925 240.27372 253.44052 251.92686 257.41211 244.63086 C 264.51907 231.57502 211.12639 140.12082 210.41211 132.26367 C 209.90443 126.67925 212.24754 113.81152 207.24023 97.960938 C 207.61918 97.85011 207.99389 97.745329 208.37695 97.626953 C 254.25399 83.449583 257.5483 40.38522 235.94531 16.1875 C 224.46896 3.3327322 208.973 -0.068223234 195.24219 0 z "
       transform="translate(-547.84537,-663.98354)"
       id="path4141" />
    <path
       id="path4160"
       d="m -458.8133,-558.8125 c 6.48935,0 11.75,5.26065 11.75,11.75 0,6.48935 -5.26065,11.75 -11.75,11.75 -6.48935,0 -11.75,-5.26065 -11.75,-11.75 0,-6.48935 5.26065,-11.75 11.75,-11.75 z"
       style="color:#000000;clip-rule:nonzero;display:inline;overflow:visible;visibility:visible;opacity:1;isolation:auto;mix-blend-mode:normal;color-interpolation:sRGB;color-interpolation-filters:linearRGB;solid-color:#000000;solid-opacity:1;fill:#ffffff;fill-opacity:1;fill-rule:nonzero;stroke:none;stroke-width:0.375;stroke-linecap:butt;stroke-linejoin:miter;stroke-miterlimit:1;stroke-dasharray:none;stroke-dashoffset:0;stroke-opacity:1;color-rendering:auto;image-rendering:auto;shape-rendering:auto;text-rendering:auto;enable-background:accumulate"
       inkscape:connector-curvature="0" />
    <path
       id="path4158"
       d="m -378.8133,-558.8125 c 6.48935,0 11.75,5.26065 11.75,11.75 0,6.48935 -5.26065,11.75 -11.75,11.75 -6.48935,0 -11.75,-5.26065 -11.75,-11.75 0,-6.48935 5.26065,-11.75 11.75,-11.75 z"
       style="color:#000000;clip-rule:nonzero;display:inline;overflow:visible;visibility:visible;opacity:1;isolation:auto;mix-blend-mode:normal;color-interpolation:sRGB;color-interpolation-filters:linearRGB;solid-color:#000000;solid-opacity:1;fill:#ffffff;fill-opacity:1;fill-rule:nonzero;stroke:none;stroke-width:0.375;stroke-linecap:butt;stroke-linejoin:miter;stroke-miterlimit:1;stroke-dasharray:none;stroke-dashoffset:0;stroke-opacity:1;color-rendering:auto;image-rendering:auto;shape-rendering:auto;text-rendering:auto;enable-background:accumulate"
       inkscape:connector-curvature="0" />
    <path
       id="path4139"
       d="m -466.35822,-505.45899 c 12.06973,-0.3885 34.84981,17.07446 45.23437,20.51758 1.10934,0.29725 1.51025,0.53909 2.31055,0.53909 0.8003,0 1.26753,-0.25961 2.31056,-0.53909 10.7553,-3.56494 34.81066,-22.17441 46.48827,-20.40625 12.90824,1.95449 2.20725,21.32634 7.70703,35.56836 13.84327,35.84805 32.44582,91.38243 12.58984,123.70898 -6.17305,10.05004 -20.51594,27.29776 -65.88672,27.86719 -1.07119,0.007 -2.11717,0.0198 -3.20898,0.0215 -1.09244,-0.002 -2.13909,-0.0144 -3.21094,-0.0215 -45.3685,-0.57012 -59.70988,-17.81736 -65.88281,-27.86719 -19.85598,-32.32655 -1.25343,-87.86093 12.58984,-123.70898 5.49978,-14.24202 -5.2012,-33.61387 7.70704,-35.56836 0.40338,-0.0611 0.82008,-0.0974 1.25195,-0.11133 z"
       style="color:#000000;clip-rule:nonzero;display:inline;overflow:visible;visibility:visible;opacity:1;isolation:auto;mix-blend-mode:normal;color-interpolation:sRGB;color-interpolation-filters:linearRGB;solid-color:#000000;solid-opacity:1;fill:#ffffff;fill-opacity:1;fill-rule:nonzero;stroke:none;stroke-width:0.375;stroke-linecap:butt;stroke-linejoin:miter;stroke-miterlimit:1;stroke-dasharray:none;stroke-dashoffset:0;stroke-opacity:1;color-rendering:auto;image-rendering:auto;shape-rendering:auto;text-rendering:auto;enable-background:accumulate"
       inkscape:connector-curvature="0" />
  </g>
</svg>
