<?xml version="1.0" encoding="UTF-8" standalone="no"?>
<!-- Created with Inkscape (http://www.inkscape.org/) -->
<svg xmlns:dc="http://purl.org/dc/elements/1.1/" xmlns:cc="http://creativecommons.org/ns#" xmlns:rdf="http://www.w3.org/1999/02/22-rdf-syntax-ns#" xmlns:svg="http://www.w3.org/2000/svg" xmlns="http://www.w3.org/2000/svg" xmlns:sodipodi="http://sodipodi.sourceforge.net/DTD/sodipodi-0.dtd" xmlns:inkscape="http://www.inkscape.org/namespaces/inkscape" width="640" height="480" id="svg3486" sodipodi:version="0.32" inkscape:version="0.47pre4 r22446" version="1.0" sodipodi:docname="gnu_headshadow.svg" inkscape:output_extension="org.inkscape.output.svg.inkscape" inkscape:export-filename="/home/compartido/logos/gnu_hornedword.png" inkscape:export-xdpi="90" inkscape:export-ydpi="90">
  <defs id="defs3488">
    <inkscape:perspective sodipodi:type="inkscape:persp3d" inkscape:vp_x="0 : 320 : 1" inkscape:vp_y="0 : 1000 : 0" inkscape:vp_z="480 : 320 : 1" inkscape:persp3d-origin="240 : 213.33333 : 1" id="perspective67"/>
    <inkscape:perspective id="perspective6786" inkscape:persp3d-origin="0.5 : 0.33333333 : 1" inkscape:vp_z="1 : 0.5 : 1" inkscape:vp_y="0 : 1000 : 0" inkscape:vp_x="0 : 0.5 : 1" sodipodi:type="inkscape:persp3d"/>
    <inkscape:perspective id="perspective2968" inkscape:persp3d-origin="0.5 : 0.33333333 : 1" inkscape:vp_z="1 : 0.5 : 1" inkscape:vp_y="0 : 1000 : 0" inkscape:vp_x="0 : 0.5 : 1" sodipodi:type="inkscape:persp3d"/>
    <inkscape:perspective id="perspective2996" inkscape:persp3d-origin="0.5 : 0.33333333 : 1" inkscape:vp_z="1 : 0.5 : 1" inkscape:vp_y="0 : 1000 : 0" inkscape:vp_x="0 : 0.5 : 1" sodipodi:type="inkscape:persp3d"/>
    <inkscape:perspective id="perspective3800" inkscape:persp3d-origin="0.5 : 0.33333333 : 1" inkscape:vp_z="1 : 0.5 : 1" inkscape:vp_y="0 : 1000 : 0" inkscape:vp_x="0 : 0.5 : 1" sodipodi:type="inkscape:persp3d"/>
    <inkscape:perspective id="perspective3822" inkscape:persp3d-origin="0.5 : 0.33333333 : 1" inkscape:vp_z="1 : 0.5 : 1" inkscape:vp_y="0 : 1000 : 0" inkscape:vp_x="0 : 0.5 : 1" sodipodi:type="inkscape:persp3d"/>
    <inkscape:perspective id="perspective3844" inkscape:persp3d-origin="0.5 : 0.33333333 : 1" inkscape:vp_z="1 : 0.5 : 1" inkscape:vp_y="0 : 1000 : 0" inkscape:vp_x="0 : 0.5 : 1" sodipodi:type="inkscape:persp3d"/>
    <inkscape:perspective id="perspective3866" inkscape:persp3d-origin="0.5 : 0.33333333 : 1" inkscape:vp_z="1 : 0.5 : 1" inkscape:vp_y="0 : 1000 : 0" inkscape:vp_x="0 : 0.5 : 1" sodipodi:type="inkscape:persp3d"/>
    <inkscape:perspective id="perspective3888" inkscape:persp3d-origin="0.5 : 0.33333333 : 1" inkscape:vp_z="1 : 0.5 : 1" inkscape:vp_y="0 : 1000 : 0" inkscape:vp_x="0 : 0.5 : 1" sodipodi:type="inkscape:persp3d"/>
    <inkscape:perspective id="perspective6805" inkscape:persp3d-origin="0.5 : 0.33333333 : 1" inkscape:vp_z="1 : 0.5 : 1" inkscape:vp_y="0 : 1000 : 0" inkscape:vp_x="0 : 0.5 : 1" sodipodi:type="inkscape:persp3d"/>
    <inkscape:perspective id="perspective6937" inkscape:persp3d-origin="0.5 : 0.33333333 : 1" inkscape:vp_z="1 : 0.5 : 1" inkscape:vp_y="0 : 1000 : 0" inkscape:vp_x="0 : 0.5 : 1" sodipodi:type="inkscape:persp3d"/>
  </defs>
  <sodipodi:namedview id="base" pagecolor="#ffffff" bordercolor="#666666" borderopacity="1.0" inkscape:pageopacity="0.0" inkscape:pageshadow="2" inkscape:zoom="0.34375" inkscape:cx="189.44993" inkscape:cy="231.53247" inkscape:current-layer="layer1" inkscape:document-units="px" width="480px" height="480px" inkscape:window-width="960" inkscape:window-height="689" inkscape:window-x="64" inkscape:window-y="0" showgrid="false" inkscape:window-maximized="1"/>
  <metadata id="metadata3491">
    <rdf:RDF>
      <cc:Work rdf:about="">
        <dc:format>image/svg+xml</dc:format>
        <dc:type rdf:resource="http://purl.org/dc/dcmitype/StillImage"/>
        <cc:license rdf:resource="http://creativecommons.org/licenses/by/2.5/"/>
        <dc:title/>
        <dc:date>05022008</dc:date>
        <dc:creator>
          <cc:Agent>
            <dc:title>Vladimir Zúñiga Concha</dc:title>
          </cc:Agent>
        </dc:creator>
      </cc:Work>
      <cc:License rdf:about="http://creativecommons.org/licenses/by/2.5/">
        <cc:permits rdf:resource="http://web.resource.org/cc/Reproduction"/>
        <cc:permits rdf:resource="http://web.resource.org/cc/Distribution"/>
        <cc:requires rdf:resource="http://web.resource.org/cc/Notice"/>
        <cc:requires rdf:resource="http://web.resource.org/cc/Attribution"/>
        <cc:permits rdf:resource="http://web.resource.org/cc/DerivativeWorks"/>
      </cc:License>
    </rdf:RDF>
  </metadata>
  <g id="layer1" inkscape:label="Layer 1" inkscape:groupmode="layer" transform="translate(0,-160)">
    <g id="g4194" transform="translate(226.90909,-37.818182)">
      <g id="text3851" style="font-size:386.80804443px;font-style:normal;font-weight:normal;line-height:125%;fill:#000000;fill-opacity:1;stroke:none;font-family:Seabird Light SF;-inkscape-font-specification:Seabird Light SF" transform="matrix(0.7827199,0,0,0.58599744,386.83815,205.76936)">
        <path id="path3856" style="font-variant:normal;font-stretch:normal;text-align:start;line-height:125%;writing-mode:lr-tb;text-anchor:start;font-family:Skyscraper SF;-inkscape-font-specification:Skyscraper SF" d="m -299.6483,517.89498 c -17.01959,0 -28.49488,-3.09447 -34.42591,-9.2834 -5.6732,-6.44678 -8.50979,-18.82463 -8.50978,-37.13357 l 0.38681,-222.41462 c -10e-6,-13.1512 3.09445,-22.82139 9.28339,-29.01061 6.1889,-6.18862 16.37484,-9.28308 30.55784,-9.28339 3.09441,3.1e-4 5.54419,3.1e-4 7.34935,0 2.06292,3.1e-4 9.02545,1.03179 20.88764,3.09446 11.86202,1.80541 17.79307,13.2807 17.79317,34.42592 l 0,51.05866 -28.6238,0 0,-63.82332 -29.0106,0 0,258.00096 29.0106,0 0,-129.58069 -14.3119,0 0,-23.20849 42.9357,0 0,139.63771 c -1e-4,13.92511 -3.2235,23.72424 -9.67021,29.39741 -6.18901,5.41531 -17.40643,8.12297 -33.6523,8.12297"/>
        <path id="path3858" style="font-variant:normal;font-stretch:normal;text-align:start;line-height:125%;writing-mode:lr-tb;text-anchor:start;font-family:Skyscraper SF;-inkscape-font-specification:Skyscraper SF" d="m -205.92591,515.96094 -28.6238,0 0,-266.89755 c -1e-5,-13.1512 3.09445,-22.82139 9.28339,-29.01061 6.18891,-6.18862 16.50378,-9.28308 30.94465,-9.28339 3.61015,3.1e-4 7.34929,3.1e-4 11.21743,0 3.61014,0.77392 10.31481,1.93434 20.11402,3.48127 9.79904,1.54754 14.69861,12.89389 14.6987,34.03911 l 0,267.67117 -28.62379,0 0,-280.43583 -29.0106,0 0,280.43583"/>
        <path id="path3860" style="font-variant:normal;font-stretch:normal;text-align:start;line-height:125%;writing-mode:lr-tb;text-anchor:start;font-family:Skyscraper SF;-inkscape-font-specification:Skyscraper SF" d="m -99.438868,516.73455 c -18.308932,-2.32084 -27.463382,-14.18294 -27.463372,-35.58634 l 0.38681,-268.05797 28.623794,0 0,280.43583 28.623795,0 0,-280.43583 28.623796,0 0,267.28436 c -9.7e-5,12.63575 -3.094559,22.17701 -9.283393,28.62379 -6.189011,6.4468 -15.988138,9.6702 -29.397412,9.6702 -3.352391,0 -6.188981,-0.12893 -8.509777,-0.3868 -2.320895,-0.25788 -6.188972,-0.77362 -11.604241,-1.54724"/>
      </g>
      <g transform="scale(1.0767564,0.92871515)" style="font-size:57.90194321px;font-style:normal;font-variant:normal;font-weight:normal;font-stretch:normal;text-indent:0;text-align:start;text-decoration:none;line-height:125%;letter-spacing:normal;word-spacing:normal;text-transform:none;direction:ltr;block-progression:tb;writing-mode:lr-tb;text-anchor:start;color:#000000;fill:#000000;fill-opacity:1;fill-rule:nonzero;stroke:none;marker:none;visibility:visible;display:inline;overflow:visible;enable-background:accumulate;font-family:Skyscraper SF;-inkscape-font-specification:Skyscraper SF" id="text2954">
        <path d="m 115.1817,608.31879 -4.05313,0 0,-31.55656 4.05313,0 0,1.56335 c 0.1158,-0.19298 0.27021,-0.36668 0.46322,-0.52112 0.193,-0.15437 0.38601,-0.28948 0.57902,-0.40531 0.2316,-0.15438 0.52111,-0.30878 0.86853,-0.46322 0.386,-0.19297 0.81062,-0.32808 1.27384,-0.40531 0.46321,-0.0772 0.90712,-0.11577 1.33175,-0.1158 2.31606,3e-5 3.4741,1.31247 3.47411,3.93733 l 0,5.32698 -4.05313,0 0,-5.55859 -3.93734,0 0,28.19825" style="marker:none" id="path5363"/>
        <path d="m 130.52029,608.49249 c -0.54042,0.11581 -1.02294,0.17371 -1.44755,0.17371 -2.27748,0 -3.41621,-1.31244 -3.41621,-3.93733 l 0,-27.96664 4.05313,0 0,28.19824 3.93734,0 0,-28.19824 4.05313,0 0,31.55656 -4.05313,0 0,-1.50545 -0.92644,0.81062 c -0.69483,0.46322 -1.42825,0.75273 -2.20027,0.86853" style="marker:none" id="path5365"/>
        <path d="m 145.26357,608.31879 -4.05313,0 0,-31.55656 4.05313,0 0,1.56335 c 0.1158,-0.19298 0.2702,-0.36668 0.46322,-0.52112 0.193,-0.15437 0.386,-0.28948 0.57902,-0.40531 0.2316,-0.15438 0.52111,-0.30878 0.86853,-0.46322 0.386,-0.19297 0.81061,-0.32808 1.27384,-0.40531 0.4632,-0.0772 0.90712,-0.11577 1.33174,-0.1158 2.31607,3e-5 3.47411,1.31247 3.47412,3.93733 l 0,27.96664 -4.05314,0 0,-28.19825 -3.93733,0 0,28.19825" style="marker:none" id="path5367"/>
        <path d="m 167.84624,580.29425 -3.41622,0 0,-3.53202 3.41622,0 0,-7.93257 c -1e-5,-2.39324 0.42461,-4.01449 1.27384,-4.86376 0.84922,-0.84919 2.43187,-1.2738 4.74796,-1.27384 2.20026,4e-5 3.70571,0.42465 4.51635,1.27384 0.81061,0.84927 1.21593,2.47052 1.21594,4.86376 l 0,4.45845 -3.76363,0 0,-6.94823 -3.99523,0 0,10.42235 3.99523,0 0,3.53202 -3.99523,0 0,28.02454 -3.99523,0 0,-28.02454" style="marker:none" id="path5369"/>
        <path d="m 182.357,608.31879 -4.05313,0 0,-31.55656 4.05313,0 0,1.56335 c 0.1158,-0.19298 0.27021,-0.36668 0.46322,-0.52112 0.193,-0.15437 0.38601,-0.28948 0.57902,-0.40531 0.2316,-0.15438 0.52111,-0.30878 0.86853,-0.46322 0.386,-0.19297 0.81062,-0.32808 1.27384,-0.40531 0.46321,-0.0772 0.90712,-0.11577 1.33175,-0.1158 2.31606,3e-5 3.4741,1.31247 3.47411,3.93733 l 0,5.32698 -4.05313,0 0,-5.55859 -3.93734,0 0,28.19825" style="marker:none" id="path5371"/>
        <path d="m 198.91153,608.6083 c -2.27748,0 -3.86013,-0.38602 -4.74795,-1.15804 -0.88784,-0.77203 -1.33175,-2.14237 -1.33175,-4.11104 l 0,-21.71323 c 0,-2.97227 0.84923,-4.59352 2.54769,-4.86376 1.69845,-0.27018 3.01089,-0.40528 3.93733,-0.40532 1.96865,4e-5 3.3776,0.44395 4.22684,1.33175 0.88782,0.84926 1.33173,2.2003 1.33175,4.05313 l 0,11.46459 -7.99047,0 0,11.75409 3.93733,0 0,-7.29564 4.05314,0 0,5.79019 c -2e-5,1.85287 -0.46323,3.18461 -1.38965,3.99524 -0.88784,0.77202 -2.41259,1.15804 -4.57426,1.15804 m -2.02656,-18.93394 3.93733,0 0,-9.55382 -3.93733,0 0,9.55382" style="marker:none" id="path5373"/>
        <path d="m 214.06556,608.6083 c -2.27748,0 -3.86014,-0.38602 -4.74796,-1.15804 -0.88783,-0.77203 -1.33175,-2.14237 -1.33175,-4.11104 l 0,-21.71323 c 0,-2.97227 0.84923,-4.59352 2.54769,-4.86376 1.69845,-0.27018 3.01089,-0.40528 3.93733,-0.40532 1.96866,4e-5 3.3776,0.44395 4.22684,1.33175 0.88782,0.84926 1.33173,2.2003 1.33175,4.05313 l 0,11.46459 -7.99047,0 0,11.75409 3.93733,0 0,-7.29564 4.05314,0 0,5.79019 c -2e-5,1.85287 -0.46323,3.18461 -1.38965,3.99524 -0.88784,0.77202 -2.41259,1.15804 -4.57425,1.15804 m -2.02657,-18.93394 3.93733,0 0,-9.55382 -3.93733,0 0,9.55382" style="marker:none" id="path5375"/>
      </g>
      <g transform="scale(1.0767564,0.92871515)" style="font-size:57.90194321px;font-style:normal;font-variant:normal;font-weight:normal;font-stretch:normal;text-indent:0;text-align:start;text-decoration:none;line-height:125%;letter-spacing:normal;word-spacing:normal;text-transform:none;direction:ltr;block-progression:tb;writing-mode:lr-tb;text-anchor:start;color:#000000;fill:#000000;fill-opacity:1;fill-rule:nonzero;stroke:none;marker:none;visibility:visible;display:inline;overflow:visible;enable-background:accumulate;font-family:Skyscraper SF;-inkscape-font-specification:Skyscraper SF" id="text2954-6">
        <path d="m 245.16684,608.31879 -4.05313,0 0,-31.55656 4.05313,0 0,1.56335 c 0.1158,-0.19298 0.27021,-0.36668 0.46322,-0.52112 0.193,-0.15437 0.386,-0.28948 0.57902,-0.40531 0.2316,-0.15438 0.52111,-0.30878 0.86853,-0.46322 0.386,-0.19297 0.81062,-0.32808 1.27384,-0.40531 0.46321,-0.0772 0.90712,-0.11577 1.33174,-0.1158 2.31607,3e-5 3.47411,1.31247 3.47412,3.93733 l 0,5.32698 -4.05314,0 0,-5.55859 -3.93733,0 0,28.19825" style="marker:none" id="path5378"/>
        <path d="m 260.50543,608.49249 c -0.54043,0.11581 -1.02294,0.17371 -1.44755,0.17371 -2.27748,0 -3.41622,-1.31244 -3.41621,-3.93733 l 0,-27.96664 4.05313,0 0,28.19824 3.93733,0 0,-28.19824 4.05314,0 0,31.55656 -4.05314,0 0,-1.50545 -0.92643,0.81062 c -0.69483,0.46322 -1.42825,0.75273 -2.20027,0.86853" style="marker:none" id="path5380"/>
        <path d="m 275.24871,608.31879 -4.05314,0 0,-31.55656 4.05314,0 0,1.56335 c 0.1158,-0.19298 0.2702,-0.36668 0.46322,-0.52112 0.193,-0.15437 0.386,-0.28948 0.57901,-0.40531 0.23161,-0.15438 0.52111,-0.30878 0.86853,-0.46322 0.38601,-0.19297 0.81062,-0.32808 1.27385,-0.40531 0.4632,-0.0772 0.90712,-0.11577 1.33174,-0.1158 2.31607,3e-5 3.4741,1.31247 3.47412,3.93733 l 0,27.96664 -4.05314,0 0,-28.19825 -3.93733,0 0,28.19825" style="marker:none" id="path5382"/>
        <path d="m 301.6529,608.6083 c -2.54769,0 -4.26544,-0.46322 -5.15327,-1.38965 -0.84923,-0.96503 -1.27384,-2.81789 -1.27384,-5.55859 l 0.0579,-33.29361 c 0,-1.96863 0.46321,-3.41618 1.38965,-4.34265 0.92642,-0.92639 2.45117,-1.3896 4.57425,-1.38965 0.46321,5e-5 0.82992,5e-5 1.10014,0 0.3088,5e-5 1.35103,0.15445 3.1267,0.46322 1.77565,0.27025 2.66348,1.98801 2.66349,5.15327 l 0,7.64306 -4.28474,0 0,-9.55382 -4.34265,0 0,38.62059 4.34265,0 0,-19.39715 -2.14238,0 0,-3.47411 6.42712,0 0,20.9026 c -1e-5,2.08447 -0.48253,3.55132 -1.44755,4.40055 -0.92644,0.81062 -2.6056,1.21594 -5.03747,1.21594" style="marker:none" id="path5384"/>
        <path d="m 315.68236,608.31879 -4.28474,0 0,-39.95234 c -1e-5,-1.96863 0.46321,-3.41618 1.38964,-4.34265 0.92643,-0.92639 2.47048,-1.3896 4.63216,-1.38965 0.54041,5e-5 1.10013,5e-5 1.67915,0 0.54041,0.11585 1.54405,0.28956 3.01091,0.52112 1.46683,0.23165 2.20026,1.93011 2.20027,5.09537 l 0,40.06815 -4.28474,0 0,-41.97891 -4.34265,0 0,41.97891" style="marker:none" id="path5386"/>
        <path d="m 331.62258,608.43459 c -2.74069,-0.34741 -4.11104,-2.12307 -4.11104,-5.32698 l 0.0579,-40.12604 4.28474,0 0,41.9789 4.28474,0 0,-41.9789 4.28475,0 0,40.01024 c -2e-5,1.89146 -0.46323,3.31971 -1.38965,4.28474 -0.92644,0.96503 -2.39329,1.44755 -4.40055,1.44755 -0.50182,0 -0.92644,-0.0193 -1.27384,-0.0579 -0.34742,-0.0386 -0.92644,-0.11581 -1.73706,-0.23161" style="marker:none" id="path5388"/>
      </g>
      <g transform="matrix(1.289845,0,0,1.289845,-301.09455,-65.005826)" id="g3911">
        <path transform="translate(-5.7220459e-6,160.64541)" style="color:#000000;fill:#000000;fill-opacity:1;fill-rule:nonzero;stroke:none;stroke-width:1px;marker:none;visibility:visible;display:inline;overflow:visible;enable-background:accumulate" d="m 371.74468,347.04965 c 0,2.13864 -1.66146,3.87234 -3.71099,3.87234 -2.04952,0 -3.71099,-1.7337 -3.71099,-3.87234 0,-2.13863 1.66147,-3.87234 3.71099,-3.87234 2.04953,0 3.71099,1.73371 3.71099,3.87234 z" id="path3790"/>
        <path transform="matrix(1.2582418,0,0,1.2582418,-84.335059,71.022681)" style="color:#000000;fill:#000000;fill-opacity:1;fill-rule:nonzero;stroke:none;stroke-width:1px;marker:none;visibility:visible;display:inline;overflow:visible;enable-background:accumulate" d="m 371.74468,347.04965 c 0,2.13864 -1.66146,3.87234 -3.71099,3.87234 -2.04952,0 -3.71099,-1.7337 -3.71099,-3.87234 0,-2.13863 1.66147,-3.87234 3.71099,-3.87234 2.04953,0 3.71099,1.73371 3.71099,3.87234 z" id="path3790-1"/>
        <path transform="matrix(1.5164836,0,0,1.5164836,-166.75346,-18.600046)" style="color:#000000;fill:#000000;fill-opacity:1;fill-rule:nonzero;stroke:none;stroke-width:1px;marker:none;visibility:visible;display:inline;overflow:visible;enable-background:accumulate" d="m 371.74468,347.04965 c 0,2.13864 -1.66146,3.87234 -3.71099,3.87234 -2.04952,0 -3.71099,-1.7337 -3.71099,-3.87234 0,-2.13863 1.66147,-3.87234 3.71099,-3.87234 2.04953,0 3.71099,1.73371 3.71099,3.87234 z" id="path3790-1-8"/>
        <path transform="matrix(1.7747254,0,0,1.7747254,-247.25521,-108.22277)" style="color:#000000;fill:#000000;fill-opacity:1;fill-rule:nonzero;stroke:none;stroke-width:1px;marker:none;visibility:visible;display:inline;overflow:visible;enable-background:accumulate" d="m 371.74468,347.04965 c 0,2.13864 -1.66146,3.87234 -3.71099,3.87234 -2.04952,0 -3.71099,-1.7337 -3.71099,-3.87234 0,-2.13863 1.66147,-3.87234 3.71099,-3.87234 2.04953,0 3.71099,1.73371 3.71099,3.87234 z" id="path3790-1-8-7"/>
        <path transform="matrix(2.0329672,0,0,2.0329672,-325.84027,-197.8455)" style="color:#000000;fill:#000000;fill-opacity:1;fill-rule:nonzero;stroke:none;stroke-width:1px;marker:none;visibility:visible;display:inline;overflow:visible;enable-background:accumulate" d="m 371.74468,347.04965 c 0,2.13864 -1.66146,3.87234 -3.71099,3.87234 -2.04952,0 -3.71099,-1.7337 -3.71099,-3.87234 0,-2.13863 1.66147,-3.87234 3.71099,-3.87234 2.04953,0 3.71099,1.73371 3.71099,3.87234 z" id="path3790-1-8-7-9"/>
        <path transform="matrix(-1,0,0,1,844.72031,160.64541)" style="color:#000000;fill:#000000;fill-opacity:1;fill-rule:nonzero;stroke:none;stroke-width:1px;marker:none;visibility:visible;display:inline;overflow:visible;enable-background:accumulate" d="m 371.74468,347.04965 c 0,2.13864 -1.66146,3.87234 -3.71099,3.87234 -2.04952,0 -3.71099,-1.7337 -3.71099,-3.87234 0,-2.13863 1.66147,-3.87234 3.71099,-3.87234 2.04953,0 3.71099,1.73371 3.71099,3.87234 z" id="path3790-2"/>
        <path transform="matrix(-1.2582418,0,0,1.2582418,929.05537,71.022681)" style="color:#000000;fill:#000000;fill-opacity:1;fill-rule:nonzero;stroke:none;stroke-width:1px;marker:none;visibility:visible;display:inline;overflow:visible;enable-background:accumulate" d="m 371.74468,347.04965 c 0,2.13864 -1.66146,3.87234 -3.71099,3.87234 -2.04952,0 -3.71099,-1.7337 -3.71099,-3.87234 0,-2.13863 1.66147,-3.87234 3.71099,-3.87234 2.04953,0 3.71099,1.73371 3.71099,3.87234 z" id="path3790-1-0"/>
        <path transform="matrix(-1.5164836,0,0,1.5164836,1011.4738,-18.600046)" style="color:#000000;fill:#000000;fill-opacity:1;fill-rule:nonzero;stroke:none;stroke-width:1px;marker:none;visibility:visible;display:inline;overflow:visible;enable-background:accumulate" d="m 371.74468,347.04965 c 0,2.13864 -1.66146,3.87234 -3.71099,3.87234 -2.04952,0 -3.71099,-1.7337 -3.71099,-3.87234 0,-2.13863 1.66147,-3.87234 3.71099,-3.87234 2.04953,0 3.71099,1.73371 3.71099,3.87234 z" id="path3790-1-8-2"/>
        <path transform="matrix(-1.7747254,0,0,1.7747254,1091.9755,-108.22277)" style="color:#000000;fill:#000000;fill-opacity:1;fill-rule:nonzero;stroke:none;stroke-width:1px;marker:none;visibility:visible;display:inline;overflow:visible;enable-background:accumulate" d="m 371.74468,347.04965 c 0,2.13864 -1.66146,3.87234 -3.71099,3.87234 -2.04952,0 -3.71099,-1.7337 -3.71099,-3.87234 0,-2.13863 1.66147,-3.87234 3.71099,-3.87234 2.04953,0 3.71099,1.73371 3.71099,3.87234 z" id="path3790-1-8-7-3"/>
      </g>
    </g>
    <g id="g2900" transform="matrix(0.76869362,0,0,0.76869362,-13.556156,209.29777)">
      <g style="fill:#000000" transform="matrix(0.9132262,-0.00394078,0.00359885,0.9999922,-50.502852,-12.564364)" id="g2323">
        <path style="fill:#000000;fill-rule:evenodd;stroke:#000000;stroke-width:3;stroke-linecap:butt;stroke-linejoin:miter;stroke-miterlimit:4;stroke-opacity:1;stroke-dasharray:none" d="m 266.32464,203.66232 c -15.2977,19.05235 -42.25856,34.78353 -10.97163,57.43972 -13.54136,-21.80915 -15.39855,-18.3204 21.29787,-32.9149 l -10.32624,-24.52482 z" id="path2325" sodipodi:nodetypes="cccc"/>
        <path style="fill:#000000;fill-rule:evenodd;stroke:#000000;stroke-width:3;stroke-linecap:butt;stroke-linejoin:miter;stroke-miterlimit:4;stroke-opacity:1;stroke-dasharray:none" d="m 273.69587,224.262 c -22.52601,14.50349 -4.59878,75.8941 -33.32654,67.32581 30.59828,12.67564 28.19093,-29.67946 38.48966,-13.75844 -8.06129,1.25221 -30.02846,32.54281 -8.42922,44.39825 -16.73897,-19.35861 14.66799,-31.53088 21.65972,-15.67839 L 273.69587,224.262 z" id="path2327" sodipodi:nodetypes="cccccc"/>
        <path style="fill:#000000;fill-rule:evenodd;stroke:#000000;stroke-width:3;stroke-linecap:butt;stroke-linejoin:miter;stroke-miterlimit:4;stroke-opacity:1;stroke-dasharray:none" d="m 352.4301,202.91348 c 19.69419,14.46204 49.80029,22.70706 25.41556,52.66637 7.45806,-24.56389 10.15225,-21.6722 -29.06684,-26.30795 l 3.65128,-26.35842 z" id="path2329" sodipodi:nodetypes="cccc"/>
        <path style="fill:#000000;fill-rule:evenodd;stroke:#000000;stroke-width:3;stroke-linecap:butt;stroke-linejoin:miter;stroke-miterlimit:4;stroke-opacity:1;stroke-dasharray:none" d="m 358.69292,227.65175 c 22.52601,14.50349 4.82696,61.74695 33.55472,53.17866 -30.59828,12.67564 -28.41911,-15.53231 -38.71784,0.38871 8.06129,1.25221 24.09578,47.14632 -3.66431,38.92193 22.21528,-10.91595 -2.57446,-26.05456 -9.56619,-10.20207 l 18.39362,-82.28723 z" id="path2331" sodipodi:nodetypes="cccccc"/>
        <path style="fill:#000000;fill-rule:evenodd;stroke:#000000;stroke-width:3;stroke-linecap:butt;stroke-linejoin:miter;stroke-miterlimit:4;stroke-opacity:1;stroke-dasharray:none" d="m 275.79921,336.91564 c 2.33337,24.32216 -6.0059,54.40229 32.21505,48.8046 -24.91706,-6.1764 -23.81348,-2.38131 -7.70661,-38.43954 l -24.50844,-10.36506 z" id="path2333" sodipodi:nodetypes="cccc"/>
        <path style="fill:#000000;fill-rule:evenodd;stroke:#000000;stroke-width:3;stroke-linecap:butt;stroke-linejoin:miter;stroke-miterlimit:4;stroke-opacity:1;stroke-dasharray:none" d="m 291.93863,348.94392 c 9.14577,25.18189 38.30022,35.92165 23.57332,62.0333 19.14684,-27.02453 -1.69463,-46.39356 16.11414,-52.90434 -0.56704,8.13824 11.8372,49.73315 28.18821,31.30156 -22.58923,12.02812 -18.82115,-39.09444 -1.81272,-42.3958 l -66.06295,1.96528 z" id="path2335" sodipodi:nodetypes="cccccc"/>
        <path style="fill:#000000;fill-rule:evenodd;stroke:#000000;stroke-width:3.98994565px;stroke-linecap:butt;stroke-linejoin:miter;stroke-opacity:1" d="m 384.61331,187.05345 c 3.32452,42.22274 -28.93863,93.66397 -28.50936,155.04066 17.89867,34.32534 -101.64979,32.35063 -82.84319,-0.96052 1.39894,-55.05846 -29.68084,-110.45313 -19.01689,-156.56355 48.61283,-48.58468 81.75661,-55.49088 130.36944,2.48341 z" id="path2337" sodipodi:nodetypes="ccccc"/>
        <path style="opacity:0.20851063;fill:#000000;fill-rule:evenodd;stroke:none" d="m 278.43316,144.00392 76.21207,5.01996 c -4.49635,65.75581 -8.87562,128.26323 -26.46887,197.14739 l -29.20702,0 c -5.96889,-21.65139 -5.91931,-41.67639 -7.24087,-60.66959 -0.26195,-3.76474 -0.57778,-7.48894 -1.00502,-11.17724 -5.33235,-46.03277 -9.40836,-86.47215 -12.29029,-130.32052 z" id="path2339" sodipodi:nodetypes="ccccssc"/>
        <path style="opacity:0.40851063;fill:#000000;fill-rule:evenodd;stroke:#000000;stroke-width:1px;stroke-linecap:butt;stroke-linejoin:miter;stroke-opacity:1" d="m 242.60892,186.8914 c 23.59362,-4.9086 50.41096,-15.29754 62.52128,-0.68454 -6.42775,-31.9884 -36.32606,-11.51319 -62.52128,0.68454 z" id="path2341" sodipodi:nodetypes="ccc"/>
        <path style="fill:#000000;fill-rule:evenodd;stroke:#000000;stroke-width:3.32810688px;stroke-linecap:butt;stroke-linejoin:miter;stroke-opacity:1" d="M 306.73378,185.48328 C 293.38345,134.29469 104.55006,296.04849 184.95267,140.29731 166.48633,257.03839 306.59676,67.033715 311.21983,148.70112" id="path2343" sodipodi:nodetypes="ccc"/>
        <path style="opacity:0.40851063;fill:#000000;fill-rule:evenodd;stroke:#000000;stroke-width:1px;stroke-linecap:butt;stroke-linejoin:miter;stroke-opacity:1" d="m 391.83854,185.98901 c -23.59362,-4.9086 -50.41096,-15.29754 -62.52128,-0.68454 6.42775,-31.98839 36.32606,-11.51318 62.52128,0.68454 z" id="path2345" sodipodi:nodetypes="ccc"/>
        <path style="fill:#000000;fill-rule:evenodd;stroke:#000000;stroke-width:3.32810688px;stroke-linecap:butt;stroke-linejoin:miter;stroke-opacity:1" d="M 328.7713,185.98086 C 340.56885,125.13587 530.17863,295.80327 449.77602,140.05209 468.24236,256.79316 328.13194,66.788492 323.50887,148.4559" id="path2347" sodipodi:nodetypes="ccc"/>
        <path style="fill:#000000;fill-rule:evenodd;stroke:#000000;stroke-width:3.32810688px;stroke-linecap:butt;stroke-linejoin:miter;stroke-opacity:1" d="m 253.72171,186.89803 c -16.61092,78.81083 -57.28237,64.11194 -82.29689,40.11116 39.42816,0.13102 66.84017,-30.72427 82.29689,-40.11116 z" id="path2349" sodipodi:nodetypes="ccc"/>
        <path style="fill:#000000;fill-rule:evenodd;stroke:#000000;stroke-width:3.32810688px;stroke-linecap:butt;stroke-linejoin:miter;stroke-opacity:1" d="m 253.72171,186.57048 c -15.83886,77.14883 -50.66199,49.86046 -82.29689,40.11115 39.42816,0.13103 66.84017,-30.72426 82.29689,-40.11115 z" id="path2351" sodipodi:nodetypes="ccc"/>
        <path style="fill:#000000;fill-rule:evenodd;stroke:#000000;stroke-width:3.32810688px;stroke-linecap:butt;stroke-linejoin:miter;stroke-opacity:1" d="m 385.7457,187.67626 c 16.61092,78.81083 57.28237,64.11194 82.2969,40.11115 -39.42817,0.13103 -66.84018,-30.72426 -82.2969,-40.11115 z" id="path2353" sodipodi:nodetypes="ccc"/>
        <path style="fill:#000000;fill-rule:evenodd;stroke:#000000;stroke-width:3.32810688px;stroke-linecap:butt;stroke-linejoin:miter;stroke-opacity:1" d="m 385.7457,187.34871 c 15.83886,77.14883 50.66199,49.86046 82.2969,40.11115 -39.42817,0.13103 -66.84018,-30.72426 -82.2969,-40.11115 z" id="path2355" sodipodi:nodetypes="ccc"/>
        <path style="fill:#000000;fill-rule:evenodd;stroke:#000000;stroke-width:3.92457938px;stroke-linecap:butt;stroke-linejoin:miter;stroke-opacity:1" d="m 297.12051,201.27969 c -49.67505,1.35851 -33.29711,61.91243 -2.62835,57.54668 35.13001,-9.66987 18.18912,-56.13417 2.62835,-57.54668 z" id="path2357" sodipodi:nodetypes="ccc"/>
        <path style="fill:#000000;fill-rule:evenodd;stroke:#000000;stroke-width:3.92457938px;stroke-linecap:butt;stroke-linejoin:miter;stroke-opacity:1" d="m 336.20128,201.92508 c 49.67505,1.35851 33.6198,61.26704 2.95104,56.90129 -35.13001,-9.66987 -18.51181,-55.48878 -2.95104,-56.90129 z" id="path2359" sodipodi:nodetypes="ccc"/>
        <path style="fill:#000000;fill-rule:evenodd;stroke:#000000;stroke-width:1px;stroke-linecap:butt;stroke-linejoin:miter;stroke-opacity:1" d="m 260.41489,197.96454 c 18.75143,-15.42332 36.53639,-14.90006 53.56738,-1.93617 -16.37445,-12.19296 -34.62428,-8.13253 -53.56738,1.93617 z" id="path2361" sodipodi:nodetypes="ccc"/>
        <path style="fill:#000000;fill-rule:evenodd;stroke:#000000;stroke-width:1px;stroke-linecap:butt;stroke-linejoin:miter;stroke-opacity:1" d="m 376.58511,198.93406 c -18.75143,-15.42333 -36.53639,-14.90006 -53.56738,-1.93617 16.37445,-12.19296 34.62428,-8.13253 53.56738,1.93617 z" id="path2363" sodipodi:nodetypes="ccc"/>
        <path style="fill:#000000;fill-rule:evenodd;stroke:#000000;stroke-width:0.97466749px;stroke-linecap:butt;stroke-linejoin:miter;stroke-opacity:1" d="m 265.18605,230.49675 c 2.68222,-33.17097 40.92657,-44.96169 50.20869,-2.19523 -20.76888,-15.70373 -35.88404,-8.02121 -50.20869,2.19523 z" id="path2365" sodipodi:nodetypes="ccc"/>
        <path style="fill:#000000;fill-rule:evenodd;stroke:#000000;stroke-width:0.97466749px;stroke-linecap:butt;stroke-linejoin:miter;stroke-opacity:1" d="m 369.14731,230.25301 c -2.77509,-33.02375 -44.37788,-43.60889 -49.886,-2.19523 20.88874,-14.89967 34.46244,-3.71186 49.886,2.19523 z" id="path2367" sodipodi:nodetypes="ccc"/>
        <path style="fill:#000000;fill-rule:evenodd;stroke:#000000;stroke-width:1px;stroke-linecap:butt;stroke-linejoin:miter;stroke-opacity:1" d="m 282.68086,344.46808 c 0.40297,-11.59133 4.37715,-12.46902 9.03546,-11.29432 -11.87533,-6.99806 -8.3865,4.66036 -9.03546,11.29432 z" id="path2369" sodipodi:nodetypes="ccc"/>
        <path style="fill:#000000;fill-rule:evenodd;stroke:#000000;stroke-width:1px;stroke-linecap:butt;stroke-linejoin:miter;stroke-opacity:1" d="m 346.89263,345.06513 c -0.40297,-11.59133 -4.37715,-12.46902 -9.03546,-11.29432 11.87533,-6.99806 8.3865,4.66036 9.03546,11.29432 z" id="path2371" sodipodi:nodetypes="ccc"/>
        <path sodipodi:type="arc" style="color:#000000;fill:#000000;fill-opacity:1;fill-rule:evenodd;stroke:none;stroke-width:1;marker:none;visibility:visible;display:inline;overflow:visible;enable-background:accumulate" id="path2373" sodipodi:cx="133.91844" sodipodi:cy="194.41489" sodipodi:rx="15.166667" sodipodi:ry="17.748226" d="m 149.08511,194.41489 c 0,9.80207 -6.79035,17.74822 -15.16667,17.74822 -8.37632,0 -15.16667,-7.94615 -15.16667,-17.74822 0,-9.80208 6.79035,-17.74823 15.16667,-17.74823 8.37632,0 15.16667,7.94615 15.16667,17.74823 z" transform="matrix(0.7234043,0,0,0.6995216,194.83915,104.07034)"/>
        <path sodipodi:type="arc" style="color:#000000;fill:#000000;fill-opacity:1;fill-rule:evenodd;stroke:none;stroke-width:1;marker:none;visibility:visible;display:inline;overflow:visible;enable-background:accumulate" id="path2375" sodipodi:cx="102.61702" sodipodi:cy="218.93971" sodipodi:rx="12.262411" sodipodi:ry="16.457447" d="m 114.87943,218.93971 c 0,9.0892 -5.49007,16.45745 -12.26241,16.45745 -6.772343,0 -12.262411,-7.36825 -12.262411,-16.45745 0,-9.08919 5.490068,-16.45744 12.262411,-16.45744 6.77234,0 12.26241,7.36825 12.26241,16.45744 z" transform="matrix(0.7391304,0,0,0.754386,215.86895,77.823927)"/>
        <path sodipodi:type="arc" style="color:#000000;fill:#000000;fill-opacity:1;fill-rule:evenodd;stroke:none;stroke-width:1;marker:none;visibility:visible;display:inline;overflow:visible;enable-background:accumulate" id="path2377" sodipodi:cx="133.91844" sodipodi:cy="194.41489" sodipodi:rx="15.166667" sodipodi:ry="17.748226" d="m 149.08511,194.41489 c 0,9.80207 -6.79035,17.74822 -15.16667,17.74822 -8.37632,0 -15.16667,-7.94615 -15.16667,-17.74822 0,-9.80208 6.79035,-17.74823 15.16667,-17.74823 8.37632,0 15.16667,7.94615 15.16667,17.74823 z" transform="matrix(0.7234043,0,0,0.6995216,243.88879,104.39303)"/>
        <path sodipodi:type="arc" style="color:#000000;fill:#000000;fill-opacity:1;fill-rule:evenodd;stroke:none;stroke-width:1;marker:none;visibility:visible;display:inline;overflow:visible;enable-background:accumulate" id="path2379" sodipodi:cx="102.61702" sodipodi:cy="218.93971" sodipodi:rx="12.262411" sodipodi:ry="16.457447" d="m 114.87943,218.93971 c 0,9.0892 -5.49007,16.45745 -12.26241,16.45745 -6.772343,0 -12.262411,-7.36825 -12.262411,-16.45745 0,-9.08919 5.490068,-16.45744 12.262411,-16.45744 6.77234,0 12.26241,7.36825 12.26241,16.45744 z" transform="matrix(0.7391304,0,0,0.754386,264.91859,78.146625)"/>
        <path sodipodi:type="arc" style="opacity:0.57021281;color:#000000;fill:#000000;fill-opacity:1;fill-rule:evenodd;stroke:none;stroke-width:1;marker:none;visibility:visible;display:inline;overflow:visible;enable-background:accumulate" id="path2381" sodipodi:cx="311.2373" sodipodi:cy="145.9447" sodipodi:rx="8.2144747" sodipodi:ry="7.301755" d="m 319.45178,145.9447 c 0,4.03265 -3.67775,7.30176 -8.21448,7.30176 -4.53672,0 -8.21447,-3.26911 -8.21447,-7.30176 0,-4.03265 3.67775,-7.30175 8.21447,-7.30175 4.53673,0 8.21448,3.2691 8.21448,7.30175 z" transform="translate(-30.978723,88.41844)"/>
        <path sodipodi:type="arc" style="opacity:0.57021281;color:#000000;fill:#000000;fill-opacity:1;fill-rule:evenodd;stroke:none;stroke-width:1;marker:none;visibility:visible;display:inline;overflow:visible;enable-background:accumulate" id="path2383" sodipodi:cx="311.2373" sodipodi:cy="145.9447" sodipodi:rx="8.2144747" sodipodi:ry="7.301755" d="m 319.45178,145.9447 c 0,4.03265 -3.67775,7.30176 -8.21448,7.30176 -4.53672,0 -8.21447,-3.26911 -8.21447,-7.30176 0,-4.03265 3.67775,-7.30175 8.21447,-7.30175 4.53673,0 8.21448,3.2691 8.21448,7.30175 z" transform="translate(21.046292,89.331158)"/>
        <path style="opacity:0.18297873;fill:#000000;fill-rule:evenodd;stroke:none" d="m 284.61703,202.48227 c -2.03845,6.02364 -4.15066,12.04728 -3.22695,18.07092 6.34633,-2.76916 12.69267,-1.71954 19.039,0.64539 0.6858,-6.95815 -0.52985,-12.96557 -2.25886,-18.71631 -5.21514,-1.75512 -6.73145,-2.33933 -13.55319,0 z" id="path2385" sodipodi:nodetypes="ccccc"/>
        <path style="opacity:0.18297873;fill:#000000;fill-rule:evenodd;stroke:none" d="m 349.9667,203.23546 c 1.95158,6.40901 2.10805,12.81803 1.01953,19.22704 -6.00851,-3.44122 -12.43126,-3.0862 -18.99667,-1.42363 0.94889,-9.45475 2.77869,-12.74322 4.27574,-18.36085 5.37475,-1.17906 7.17367,-1.59534 13.7014,0.55744 z" id="path2387" sodipodi:nodetypes="ccccc"/>
        <path style="opacity:0.28085106;fill:#000000;fill-rule:evenodd;stroke:#000000;stroke-width:1.06046033px;stroke-linecap:butt;stroke-linejoin:miter;stroke-opacity:1" d="m 383.94639,183.05962 c -37.48443,54.42266 -13.91771,214.79408 -110.04709,160.45803 -11.33768,32.61973 88.27125,32.69834 82.10016,1.02698 0.097,-52.43145 32.19576,-114.12162 27.94693,-161.48501 z" id="path2389" sodipodi:nodetypes="cccc"/>
        <path style="opacity:0.21702127;fill:#000000;fill-rule:evenodd;stroke:none" d="m 324.06913,157.23835 c 55.7822,0.0773 160.7736,82.5267 133.25703,2.2818 55.33162,113.66453 -87.43337,-13.21638 -129.1498,21.44891 l -4.10723,-23.73071 z" id="path2391" sodipodi:nodetypes="cccc"/>
        <path style="opacity:0.07234042;fill:#000000;fill-rule:evenodd;stroke:none" d="m 328.52199,132.90812 -3.66038,15.06937 c 18.43203,-22.38614 54.05598,8.27243 78.95973,18.24489 -25.78263,-16.79514 -54.84167,-48.63129 -75.29935,-33.31426 z" id="path2393" sodipodi:nodetypes="cccc"/>
        <path style="opacity:0.21702127;fill:#000000;fill-rule:evenodd;stroke:none" d="m 309.79343,159.66592 c -55.7822,0.0773 -165.79356,93.93569 -138.27699,13.69079 -33.45014,92.44668 92.05762,-20.03884 132.34432,7.30176 l 5.93267,-20.99255 z" id="path2395" sodipodi:nodetypes="cccc"/>
        <path style="opacity:0.05957444;fill:#000000;fill-rule:evenodd;stroke:none" d="m 181.75798,150.44769 c -3.95768,11.81882 -13.94528,47.34334 -10.40692,53.72873 -4.57674,-3.58393 -3.71445,-7.60223 -4.03368,-12.42376 1.42468,-15.06652 9.91632,-32.02894 14.4406,-41.30497 z" id="path2397" sodipodi:nodetypes="cccc"/>
        <path style="opacity:0.07234042;fill:#000000;fill-rule:evenodd;stroke:none" d="m 309.46488,130.41207 3.66038,15.06937 c -18.43203,-22.38614 -54.05598,8.27243 -78.95973,18.24489 25.78263,-16.79514 54.84167,-48.63129 75.29935,-33.31426 z" id="path2399" sodipodi:nodetypes="cccc"/>
        <path style="opacity:0.20425529;fill:#000000;fill-rule:evenodd;stroke:#000000;stroke-width:1px;stroke-linecap:butt;stroke-linejoin:miter;stroke-opacity:1" d="m 250.41135,190.86525 c -25.99734,49.41055 -49.52607,40.32335 -79.38298,33.56028 34.14339,0.88558 57.05187,-15.8837 79.38298,-33.56028 z" id="path2401" sodipodi:nodetypes="ccc"/>
        <path style="opacity:0.20425529;fill:#000000;fill-rule:evenodd;stroke:#000000;stroke-width:1px;stroke-linecap:butt;stroke-linejoin:miter;stroke-opacity:1" d="m 386.26597,188.81983 c 25.99734,49.41055 46.94451,45.48647 76.80142,38.7234 -34.14339,0.88558 -54.47031,-21.04682 -76.80142,-38.7234 z" id="path2403" sodipodi:nodetypes="ccc"/>
        <path style="opacity:0.27659577;fill:#000000;fill-rule:evenodd;stroke:none" d="m 273.79126,331.68405 c 16.21133,-15.40558 36.0579,1.00841 41.2614,8.37107 7.51093,-12.0186 24.28975,-18.44215 41.03994,-5.97854 l -1.44737,10.54214 c 10.02576,34.06069 -92.43234,27.54009 -81.23203,-3.19452 l 0.37806,-9.74015 z" id="path2405" sodipodi:nodetypes="cccccc"/>
        <path style="fill:#000000;fill-rule:evenodd;stroke:#000000;stroke-width:3;stroke-linecap:butt;stroke-linejoin:miter;stroke-miterlimit:4;stroke-opacity:1;stroke-dasharray:none" d="m 300.10639,151.49645 c -3.54605,6.10522 -9.34063,11.6483 -6.4539,19.3617 2.67751,-5.32874 7.22598,-11.62895 11.61702,-8.39007 -4.91391,6.04921 -9.62247,19.83575 -7.74468,30.97873 2.39202,-6.2492 4.36832,-15.82416 8.39007,-9.03546 10.65349,8.7319 3.75324,17.35812 -3.87234,27.75177 7.48982,-7.02176 23.72918,-7.9164 20.00709,-27.75177 3.02965,-0.55504 6.36038,-3.21773 7.74468,7.74468 4.45326,-11.36966 0.92474,-15.52148 -8.39007,-20.0071 2.19701,-5.14967 9.00572,-4.66645 12.9078,-1.29078 -2.41046,-10.23817 -8.99892,-18.57425 -14.84397,-21.94326 0.17769,-6.22379 -3.83503,-10.77142 -12.26241,-13.55319 5.38865,7.59399 -0.69963,11.90885 -7.09929,16.13475 z" id="path2407" sodipodi:nodetypes="ccccccccccccc"/>
        <path style="fill:#000000;fill-rule:evenodd;stroke:none" d="m 287.05025,266.88002 c 4.18551,5.55016 9.51702,9.95433 17.34167,11.86535 -9.1214,2.42522 -14.89711,-0.16808 -19.16711,-5.01995 l 1.82544,-6.8454 z" id="path2409" sodipodi:nodetypes="cccc"/>
        <path style="fill:#000000;fill-rule:evenodd;stroke:none" d="m 346.83337,260.48614 c -4.18551,5.55016 -9.51702,9.95433 -17.34167,11.86535 9.1214,2.42522 14.89711,-0.16808 19.16711,-5.01995 l -1.82544,-6.8454 z" id="path2411" sodipodi:nodetypes="cccc"/>
        <path style="fill:#000000;fill-rule:evenodd;stroke:none" d="m 351.82093,284.27845 c -5.91617,3.64988 -12.48359,5.81569 -20.46779,4.75283 7.61664,5.57389 13.93988,5.25659 19.68103,2.28796 l 0.78676,-7.04079 z" id="path2413" sodipodi:nodetypes="cccc"/>
        <path style="fill:#000000;fill-rule:evenodd;stroke:none" d="m 289.81758,286.67654 c 4.18551,5.55016 9.51702,9.95433 17.34167,11.86535 -9.1214,2.42522 -14.89711,-0.16808 -19.16711,-5.01995 l 1.82544,-6.8454 z" id="path2415" sodipodi:nodetypes="cccc"/>
        <path style="opacity:0.28936169;fill:#000000;fill-rule:evenodd;stroke:none" d="m 315.4344,371.57447 c 1.45213,-0.16135 4.51773,-0.64539 4.51773,-0.64539 2.6286,4.11998 1.28004,11.55426 1.61348,17.58688 -1.73797,-6.02937 -2.80228,-12.90082 -6.13121,-16.94149 z" id="path2417" sodipodi:nodetypes="cccc"/>
        <path style="opacity:0.30212767;fill:#000000;fill-rule:evenodd;stroke:none" d="m 279.52032,364.08464 4.33541,1.1409 c -1.59275,5.78055 1.00514,11.56111 5.47632,17.34166 -4.61698,-4.36565 -8.79565,-9.31571 -9.81173,-18.48256 z" id="path2419" sodipodi:nodetypes="cccc"/>
        <path style="opacity:0.20851063;fill:#000000;fill-rule:evenodd;stroke:none" d="m 341.81341,381.42631 c -1.02972,-4.5636 -3.16508,-9.1272 -1.36907,-13.6908 l -4.79178,0.45636 6.16085,13.23444 z" id="path2421" sodipodi:nodetypes="cccc"/>
        <path style="opacity:0.09787233;fill:#000000;fill-rule:evenodd;stroke:none" d="m 249.1724,196.60063 c -14.53115,63.37638 -44.22427,39.03149 -67.9976,32.8579 44.66218,20.00514 55.16218,-8.06982 67.9976,-32.8579 z" id="path2423" sodipodi:nodetypes="ccc"/>
      </g>
      <path transform="matrix(0.8449969,0,0,0.85200742,190.64039,-747.18589)" d="m 281.11758,1155.4124 c 0,116.9467 -99.70777,211.7509 -222.703537,211.7509 -122.995767,0 -222.703533,-94.8042 -222.703533,-211.7509 0,-116.9468 99.707766,-211.75095 222.703533,-211.75095 122.995767,0 222.703537,94.80415 222.703537,211.75095 z" sodipodi:ry="211.7509" sodipodi:rx="222.70354" sodipodi:cy="1155.4124" sodipodi:cx="58.414043" id="path3398" style="color:#000000;fill:none;stroke:#000000;stroke-width:15;stroke-linecap:butt;stroke-linejoin:miter;stroke-miterlimit:4;stroke-opacity:1;stroke-dasharray:none;stroke-dashoffset:0;marker:none;visibility:visible;display:inline;overflow:visible;enable-background:accumulate" sodipodi:type="arc"/>
    </g>
  </g>
</svg>