<?xml version="1.0" encoding="UTF-8" standalone="no"?>
<svg xmlns:inkscape="http://www.inkscape.org/namespaces/inkscape" xmlns:rdf="http://www.w3.org/1999/02/22-rdf-syntax-ns#" xmlns="http://www.w3.org/2000/svg" xmlns:xlink="http://www.w3.org/1999/xlink" xmlns:ns1="http://sozi.baierouge.fr" xmlns:cc="http://creativecommons.org/ns#" xmlns:dc="http://purl.org/dc/elements/1.1/" xmlns:sodipodi="http://sodipodi.sourceforge.net/DTD/sodipodi-0.dtd" id="svg3270" sodipodi:docname="head_of_tux_green.svg" viewBox="0 0 363.25 359.45" version="1.0" inkscape:version="0.48.4 r9939">
  <title id="title2997">Head or Tux</title>
  <sodipodi:namedview id="namedview10" bordercolor="#666666" inkscape:pageshadow="2" guidetolerance="10" pagecolor="#ffffff" gridtolerance="10" inkscape:window-maximized="1" inkscape:zoom="1.685909" objecttolerance="10" borderopacity="1" inkscape:current-layer="svg3270" inkscape:cx="181.625" inkscape:cy="179.725" inkscape:window-y="24" inkscape:window-x="55" inkscape:window-width="1311" showgrid="false" inkscape:pageopacity="0" inkscape:window-height="744"/>
  <g id="layer1" transform="translate(-326.38 -185.68)">
    <g id="g3306" transform="matrix(1.9918 0 0 1.9918 -1216.9 -793.82)" fill-rule="evenodd">
      <path id="path3308" fill="#fff" d="m955.27 581.99c0 49.8-40.42 90.22-90.22 90.22s-90.22-40.42-90.22-90.22 40.42-90.22 90.22-90.22 90.22 40.42 90.22 90.22z"/>
      <path id="path3310" fill="#000080" d="m865.02 491.81c-49.73 0-90.1 40.3-90.21 90.02 2.08-4.74 4.45-9.38 7.13-13.87 6.71-39.81 41.38-70.2 83.08-70.2 26.56 0 50.26 12.32 65.71 31.54 2.73 0.25 5.5 0.62 8.2 1.07-16.31-23.31-43.31-38.56-73.91-38.56zm77.23 56.43c4.53 10.34 7.03 21.78 7.03 33.78 0 19.22-6.53 36.88-17.38 51.06 0.5 1.37 0.99 2.77 1.37 4.2 0.53 0.78 0.93 1.51 1.27 2.25 12.92-15.62 20.69-35.67 20.69-57.51 0-11.86-2.37-23.21-6.54-33.58-1.29-0.02-2.6-0.06-3.8-0.1-0.89-0.08-1.76-0.09-2.64-0.1zm-149.38 77.23c-1.09 2.07-2.17 4.05-3.32 5.95 16.12 24.59 43.9 40.81 75.47 40.81 17.75 0 34.28-5.2 48.23-14.06-0.8-1.61-1.43-3.6-2.14-5.66-13.26 8.7-29.06 13.77-46.09 13.77-30.59 0-57.39-16.39-72.15-40.81z"/>
      <path id="path3312" d="m861.7 522.66c-8.39 0.22-16.71 2.01-24.7 5.08-33.06 11.95-48.44 38.44-61.21 67.07 1.53 10.79 4.96 20.95 9.96 30.17l14.93-23.73c18.37-21.05 65.29 7.71 73.81 13.48-21.33-27.79-64.69-28.7-79.27-26.85-10.14-10.34 5.5-28.86 21.57-40.32 0.27 11.92 0.81 23.68 6.55 32.02 17.34 10.79 37.47 4.28 51.64 12.5 19.53 16.54 34.1 38.37 44.03 62.19 3.65-2.74 7.06-5.74 10.25-8.98-4.27-16.02-13.24-31.8-30.65-45.11-5.27-25.66 2.75-40.37 19.13-51.45 8.64-4.86 21.16-7.39 39.45-6.64-28.22-10.59-40.5-6.59-53.99-5.66-13.27-10.04-27.51-14.13-41.5-13.77zm-5.56 11.03c5.83 0 10.54 4.72 10.54 10.55s-4.71 10.54-10.54 10.54-10.54-4.71-10.54-10.54 4.71-10.55 10.54-10.55zm58.68 8.69c1.9-0.05 3.82-0.03 5.85 0-10.06 1.31-22.13 4.57-24.01 11.52-4.21 10.82-18.82 2.65-12.99-2.34 7.47-6.46 17.8-8.84 31.15-9.18z" fill="#000080"/>
    </g>
  </g>
  <path id="path2989" style="fill:#008000" inkscape:connector-curvature="0" d="m283.22 314.33c-18.335-41.41-45.812-80.485-75.59-107.5-8.0495-7.3013-9.6006-8.3644-15.747-10.793-8.264-3.2654-16.437-4.6937-38.258-6.686-27.276-2.4904-36.981-4.6352-50.179-11.09l-6.5827-3.2192-2.3858-4.2732c-6.3041-11.292-9.1421-24.488-10.212-47.481-0.3011-6.4741-0.63824-11.862-0.7492-11.973-0.47938-0.47939-15.083 11.428-21.174 17.264-14.538 13.931-24.213 27.988-27.101 39.372-1.4594 5.7542-0.9583 13.631 1.1148 17.525 0.8685 1.6312 2.1852 3.685 2.9261 4.564l1.347 1.5983 6.5247-0.62693c8.2607-0.79373 31.277-0.25931 41.521 0.96409 36.12 4.3138 64.317 14.415 87.49 31.343 5.4324 3.9683 21.214 19.141 20.575 19.78-0.1719 0.1719-2.4025-1.0129-4.9569-2.6329-29.799-18.899-63.539-32.776-89.067-36.632-8.7898-1.328-22.597-0.94724-29.188 0.80484-7.4771 1.9877-16.598 7.1508-20.791 11.77-0.84461 0.93035-7.8814 11.834-15.637 24.231-7.7559 12.397-14.423 22.882-14.816 23.3-0.5672 0.60365-1.4671-0.80433-4.3597-6.8212-6.107-12.74-10.94-26.94-13.661-40.2-2.3868-11.64-2.4535-10.85 1.6808-19.87 21.576-47.12 42.552-76.63 70.131-98.649 21.715-17.339 49.609-29.692 78.749-34.882 9.9915-1.7791 32.058-1.95 41.224-0.31932 19.301 3.4338 36.49 10.306 52.222 20.878l7.4779 5.0254 16.416-1.5466c31.441-2.9621 48.82-1.0237 79.284 8.8434l9.4839 3.0718-12.746 0.36396c-21.95 0.62678-34.592 2.4362-48.039 6.8758-12.971 4.2827-20.538 9.0001-31.651 19.734-21.995 21.244-29.082 46.794-23.145 83.447l0.97594 6.0259 5.112 4.1382c22.411 18.142 39.714 41.475 49.707 67.032 2.426 6.2045 6.1198 17.394 6.1198 18.538 0 0.60811-11.662 11.197-16.441 14.929l-3.5911 2.8038-3.999-9.0319zm-48.33-181.37c3.1612-1.6086 5.6159-4.5449 8.052-9.6317 4.9429-10.321 15.848-16.339 36.945-20.389 4.4493-0.85405 8.6235-1.7652 9.2759-2.0246 1.714-0.6817-5.2942-0.65875-16.905 0.0554-24.644 1.5157-40.536 6.3997-53.446 16.425-4.934 3.8315-5.9216 7.0534-3.3373 10.888 3.7458 5.5584 13.204 7.8371 19.415 4.6771zm-65.685-8.6385c5.0016-1.7441 9.9705-6.4262 12.105-11.407 5.3945-12.585-2.5122-26.946-16.048-29.149-13.983-2.2758-26.194 9.9752-23.984 24.064 2.033 12.964 15.402 20.86 27.927 16.492z"/>
  <path id="path2991" style="fill:#008000" inkscape:connector-curvature="0" d="m0.40398 172.43c2.2665-46.47 20.618-87.945 53.209-120.26 40.344-40.006 97.057-58.336 153.65-49.663 41.701 6.391 80.789 28.123 108.26 60.189 4.7336 5.5252 10.84 13.426 10.573 13.679-0.084 0.07936-3.5713-0.29872-7.7494-0.84018l-7.5966-0.98448-5.798-6.5333c-25.93-29.229-61.32-48.235-101.78-54.664-9.47-1.504-36.87-1.504-46.86-0.001-32.55 4.897-61.565 18.129-86.267 39.337-28.281 24.282-48.515 59.111-55.257 95.121-0.46745 2.497-1.6676 5.5275-3.4061 8.6007-1.4764 2.6099-4.6129 8.6155-6.97 13.346l-4.2857 8.6007 0.28933-5.9315z"/>
  <path id="path2993" style="fill:#008000" inkscape:connector-curvature="0" d="m316.91 291.8c-0.68615-1.1629-1.8399-3.9538-2.564-6.2018l-1.3164-4.0874 3.5609-5.0112c16.055-22.594 26.297-48.994 29.903-77.079 1.161-9.0426 0.9938-33.385-0.28872-42.028-2.3947-16.139-5.864-28.727-12.079-43.831-0.23258-0.56518 1.1612-0.74144 5.8628-0.74144h6.168l2.1877 6.0798c4.2938 11.933 6.8543 22.118 9.0583 36.034 1.5184 9.5868 1.845 33.612 0.60473 44.486-2.444 21.428-7.5882 39.212-16.9 58.425-6.304 13.007-14.272 25.776-21.248 34.049l-1.7024 2.0191-1.2475-2.1144z"/>
  <path id="path2995" style="fill:#000000" inkscape:connector-curvature="0" d="m163.71 358.55c-6.5433-0.53572-19.386-2.7355-27.185-4.6566-24.912-6.1357-47.86-17.454-68.905-33.986-6.5231-5.1241-21.862-20.289-27.079-26.771-4.8494-6.0257-11.012-14.771-10.777-15.293 0.67949-1.5115 5.9635-10.806 6.1434-10.806 0.12164 0 2.3482 3.1363 4.9479 6.9695 22.956 33.849 58.454 58.735 97.892 68.63 23.515 5.8993 48.522 6.6104 72.415 2.0592 19.64-3.75 39.04-11.31 56.61-22.07l3.519-2.1554 1.9556 5.1624c1.0756 2.8393 1.9611 5.3381 1.9677 5.5527 0.007 0.21468-2.7239 1.984-6.0678 3.9318-21.145 12.317-44.505 19.98-70.115 23-6.5307 0.77017-27.961 1.0292-35.318 0.4269z"/>
  <path id="path3018" style="fill:#000000" inkscape:connector-curvature="0" d="m285.9 320.27c-18.289-42.793-45.743-82.966-76.045-111.28-9.5706-8.9413-12.294-10.81-19.5-13.38-8.7367-3.1164-13.984-4-39.1-6.5838-25.817-2.656-34.705-4.6727-47.579-10.795l-6.9479-3.3041-2.4118-4.6358c-6.477-12.44-8.352-21.97-10.409-52.88-0.21176-3.1808-0.62134-5.7832-0.9102-5.7832-1.2402 0-16.286 12.727-23.115 19.553-11.636 11.63-19.197 22.144-23.208 32.274-1.7472 4.4124-1.9113 5.3962-1.9424 11.641-0.03119 6.2718 0.09641 7.084 1.5841 10.084 0.88993 1.7943 2.2245 3.9872 2.9658 4.8732l1.3477 1.6109 8.8973-0.65243c15.61-1.1447 40.79 0.59206 58.129 4.0093 32.287 6.3634 58.228 18.486 77.703 36.31 6.4665 5.9186 11.588 11.384 10.667 11.384-0.19908 0-4.5491-2.4972-9.6667-5.5494-34.126-20.353-67.827-32.798-92.049-33.991-16.259-0.80089-27.304 2.121-37.884 10.022-3.4663 2.5887-6.4558 6.9262-24.735 35.889-5.1969 8.2341-9.6311 14.974-9.8539 14.977-0.56956 0.008-6.4591-12.283-8.9496-18.678-4.8853-12.54-9.2142-28.64-9.7424-36.22-0.3258-4.68-0.2723-4.94 2.2383-10.68 3.9262-8.98 15.218-31.09 20.119-39.4 22.71-38.49 47.595-63.024 80.266-79.149 12.457-6.1476 23.4-10.241 35.791-13.387 14.194-3.6043 20.91-4.3034 38.46-4.0037 13.554 0.23147 15.441 0.39406 21.947 1.8907 16.35 3.7613 32.428 10.643 46.529 19.916l7.3813 4.8536 9.5235-0.95281c36.683-3.67 54.221-2.0056 85.447 8.1088l9.4904 3.0741-12.456 0.42025c-23.462 0.79156-37.247 2.9675-51.011 8.0521-10.993 4.061-19.168 9.5495-29.395 19.737-12.788 12.737-19.736 25.739-22.876 42.802-1.8444 10.026-1.2653 28.939 1.3352 43.6 0.26226 1.4787 1.6158 2.9385 6.4511 6.958 24.882 20.684 42.335 46.055 52.071 75.695 3.3524 10.207 3.9101 8.4065-5.0562 16.323-4.3167 3.8112-8.8222 7.7007-10.012 8.6432l-2.1637 1.7137-1.3283-3.1081zm-51.22-187.33c3.2137-1.5557 5.4624-4.1225 8.2364-9.4013 2.8453-5.4147 7.3697-9.8547 13.157-12.912 5.9184-3.1265 11.794-5.0244 23.557-7.6087 5.1946-1.1413 9.5765-2.2069 9.7376-2.368 1.0091-1.0091-24.021 0.56125-33.679 2.113-11.028 1.7718-17.514 3.7366-25.837 7.8263-8.8115 4.3297-15.719 10.164-15.719 13.277 0 3.7659 3.3282 7.6335 8.0614 9.3677 3.5645 1.306 9.4682 1.1673 12.486-0.29342zm-63.364-9.6673c6.195-3.1854 10.574-9.3379 11.354-15.951 1.6643-14.115-9.7199-25.296-23.886-23.46-4.4926 0.58243-8.7163 2.9325-12.282 6.8335-4.0466 4.4276-5.5127 8.5725-5.201 14.704 0.45004 8.8536 5.1319 15.432 13.334 18.735 4.3412 1.7483 12.416 1.3314 16.68-0.86121z"/>
  <path id="path3020" style="fill:#000000" inkscape:connector-curvature="0" d="m0.24739 175.39c0.1684-1.3 0.46209-5.04 0.65264-8.3 0.99187-16.98 5.4254-36.51 12.186-53.68 13.594-34.521 38.516-64.561 70.644-85.148 7.319-4.69 25.17-13.566 33.32-16.562 13.33-4.9066 28.69-8.5341 42.81-10.114 8.97-1.0038 28.3-1.1423 37.15-0.266 49.874 4.9383 94.439 29.805 125.29 69.911 1.8543 2.4106 3.245 4.5093 3.0904 4.6639-0.15457 0.15456-3.4725-0.05285-7.3731-0.46089l-7.0921-0.74191-6.361-7.0828c-24.43-27.197-56.71-45.37-94-52.918-16.02-3.243-43.84-3.381-60.2-0.299-51.192 9.64-93.023 39.872-118.14 85.376-7.266 13.172-12.802 27.692-16.203 42.502-1.7543 7.641-2.3375 9.1109-8.4345 21.258-3.6025 7.1771-6.7976 13.316-7.1004 13.642-0.34217 0.36871-0.43459-0.30461-0.24426-1.7795z"/>
  <path id="path3022" style="fill:#000000" inkscape:connector-curvature="0" d="m316.56 290.76c-0.79694-1.7943-1.9153-4.5969-2.4853-6.2281l-1.0364-2.9658 4.4459-6.5247c22.203-32.585 31.72-66.611 29.548-105.65-0.94821-17.042-4.2857-33.118-10.07-48.503-1.3351-3.5512-2.4275-6.821-2.4275-7.2661 0-0.62906 1.3062-0.80929 5.8652-0.80929h5.8652l3.0095 9.0456c5.8452 17.569 8.1533 29.677 9.0947 47.711 1.2793 24.506-1.2631 44.909-8.2108 65.892-6.4404 19.451-18.536 41.934-30.263 56.256l-1.8865 2.3038-1.449-3.2623z"/>
  <metadata>
    <rdf:RDF>
      <cc:Work>
        <dc:format>image/svg+xml</dc:format>
        <dc:type rdf:resource="http://purl.org/dc/dcmitype/StillImage"/>
        <cc:license rdf:resource="http://creativecommons.org/licenses/publicdomain/"/>
        <dc:publisher>
          <cc:Agent rdf:about="http://openclipart.org/">
            <dc:title>Openclipart</dc:title>
          </cc:Agent>
        </dc:publisher>
      </cc:Work>
      <cc:License rdf:about="http://creativecommons.org/licenses/publicdomain/">
        <cc:permits rdf:resource="http://creativecommons.org/ns#Reproduction"/>
        <cc:permits rdf:resource="http://creativecommons.org/ns#Distribution"/>
        <cc:permits rdf:resource="http://creativecommons.org/ns#DerivativeWorks"/>
      </cc:License>
    </rdf:RDF>
  </metadata>
</svg>