<?xml version="1.0" encoding="UTF-8" standalone="no"?>
<svg
   xmlns:dc="http://purl.org/dc/elements/1.1/"
   xmlns:cc="http://creativecommons.org/ns#"
   xmlns:rdf="http://www.w3.org/1999/02/22-rdf-syntax-ns#"
   xmlns:svg="http://www.w3.org/2000/svg"
   xmlns="http://www.w3.org/2000/svg"
   version="1.1"
   id="svg2"
   viewBox="0 0 258.06374 315.99999"
   height="89.18222mm"
   width="72.831322mm">
  <defs
     id="defs4" />
  <metadata
     id="metadata7">
    <rdf:RDF>
      <cc:Work
         rdf:about="">
        <dc:format>image/svg+xml</dc:format>
        <dc:type
           rdf:resource="http://purl.org/dc/dcmitype/StillImage" />
        <dc:title></dc:title>
      </cc:Work>
    </rdf:RDF>
  </metadata>
  <g
     transform="translate(547.84455,615.35352)"
     id="layer1">
    <circle
       r="0"
       cx="-453.55847"
       cy="-542.26514"
       id="path4143"
       style="color:#000000;clip-rule:nonzero;display:inline;overflow:visible;visibility:visible;opacity:1;isolation:auto;mix-blend-mode:normal;color-interpolation:sRGB;color-interpolation-filters:linearRGB;solid-color:#000000;solid-opacity:1;fill:#ffffff;fill-opacity:1;fill-rule:nonzero;stroke:none;stroke-width:0.375;stroke-linecap:butt;stroke-linejoin:miter;stroke-miterlimit:1;stroke-dasharray:none;stroke-dashoffset:0;stroke-opacity:1;color-rendering:auto;image-rendering:auto;shape-rendering:auto;text-rendering:auto;enable-background:accumulate" />
    <g
       transform="translate(-6.9308024,-10)"
       id="g4768">
      <g
         id="g4763" />
    </g>
    <path
       id="path4141"
       transform="translate(-547.84455,-615.35352)"
       d="M 129.03125 0.099609375 C 127.98694 0.099529355 126.75825 0.1089643 125.74805 0.11132812 C 101.89135 0.845543 77.621306 6.145533 61.273438 28.787109 C 43.423167 53.509489 48.364681 75.775672 47.650391 83.632812 C 46.936111 91.489964 -6.4565694 182.94416 0.65039062 196 C 4.6219806 203.296 22.293251 191.64286 22.650391 202 C 23.007541 212.35715 5.3797438 316 128.11328 316 L 129.02734 316 C 129.34605 316.00041 129.64892 315.99699 129.95117 316 C 252.68471 316 235.05496 212.35715 235.41211 202 C 235.76925 191.64286 253.44052 203.296 257.41211 196 C 264.51907 182.94416 211.12639 91.489964 210.41211 83.632812 C 209.69782 75.775672 214.63933 53.509489 196.78906 28.787109 C 180.44073 6.1448942 156.1718 0.84335214 132.31445 0.109375 C 131.07348 0.109375 130.14214 0.099694575 129.03125 0.099609375 z M 89.03125 56.541016 C 95.5206 56.541016 100.78125 61.801666 100.78125 68.291016 C 100.78125 74.780366 95.5206 80.041016 89.03125 80.041016 C 82.5419 80.041016 77.28125 74.780366 77.28125 68.291016 C 77.28125 61.801666 82.5419 56.541016 89.03125 56.541016 z M 169.03125 56.541016 C 175.5206 56.541016 180.78125 61.801666 180.78125 68.291016 C 180.78125 74.780366 175.5206 80.041016 169.03125 80.041016 C 162.5419 80.041016 157.28125 74.780366 157.28125 68.291016 C 157.28125 61.801666 162.5419 56.541016 169.03125 56.541016 z M 81.486328 109.89453 C 93.556058 109.50603 116.33614 126.96899 126.7207 130.41211 C 127.83004 130.70936 128.23095 130.95117 129.03125 130.95117 C 129.83155 130.95117 130.29877 130.69159 131.3418 130.41211 C 142.0971 126.84717 166.15247 108.2377 177.83008 110.00586 C 190.73832 111.96035 180.03733 131.3322 185.53711 145.57422 C 199.38038 181.42227 217.98293 236.95665 198.12695 269.2832 C 191.9539 279.33324 177.61101 296.58096 132.24023 297.15039 C 131.16904 297.15739 130.12306 297.17018 129.03125 297.17188 C 127.93881 297.16986 126.89216 297.15749 125.82031 297.15039 C 80.451815 296.58027 66.11043 279.33303 59.9375 269.2832 C 40.08152 236.95665 58.684074 181.42227 72.527344 145.57422 C 78.027124 131.3322 67.326135 111.96035 80.234375 110.00586 C 80.637755 109.94476 81.054458 109.90846 81.486328 109.89453 z "
       style="color:#000000;clip-rule:nonzero;display:inline;overflow:visible;visibility:visible;opacity:1;isolation:auto;mix-blend-mode:normal;color-interpolation:sRGB;color-interpolation-filters:linearRGB;solid-color:#000000;solid-opacity:1;fill:#000000;fill-opacity:1;fill-rule:nonzero;stroke:none;stroke-width:0.375;stroke-linecap:butt;stroke-linejoin:miter;stroke-miterlimit:1;stroke-dasharray:none;stroke-dashoffset:0;stroke-opacity:1;color-rendering:auto;image-rendering:auto;shape-rendering:auto;text-rendering:auto;enable-background:accumulate" />
  </g>
</svg>
